<svg width="356.5" height="96" viewBox="0 0 356.5 96" xmlns="http://www.w3.org/2000/svg"><g id="svgGroup" stroke-linecap="round" fill-rule="evenodd" font-size="9pt" stroke="#000" stroke-width="0.25mm" fill="#000" style="stroke:#000;stroke-width:0.25mm;fill:#000"><path d="M 148.6 74 L 138.7 74 L 122.3 24.4 L 130.6 21.5 L 144 63.8 L 156.2 25.7 L 165.9 25.7 L 177.8 63.8 L 191.1 21.5 L 199.1 24.4 L 182.6 74 L 172.7 74 L 160.7 35.3 L 148.6 74 Z M 0 47.4 L 0 4 L 9.5 4 L 9.5 45.9 A 39.482 39.482 0 0 0 9.9 51.711 Q 10.781 57.619 13.6 61.4 A 13.242 13.242 0 0 0 22.056 66.556 A 20.418 20.418 0 0 0 25.9 66.9 A 21.386 21.386 0 0 0 30.904 66.351 A 13.455 13.455 0 0 0 38.6 61.55 A 17.382 17.382 0 0 0 41.396 56.155 Q 42.186 53.736 42.531 50.794 A 42.042 42.042 0 0 0 42.8 45.9 L 42.8 4 L 52 4 L 52 47 A 39.957 39.957 0 0 1 51.378 54.231 A 28.663 28.663 0 0 1 48.75 62.15 Q 45.5 68.5 39.65 71.85 A 25.023 25.023 0 0 1 31.089 74.804 A 32.816 32.816 0 0 1 25.9 75.2 A 32.706 32.706 0 0 1 17.895 74.275 A 22.492 22.492 0 0 1 6.9 68 Q 0.788 61.623 0.09 50.381 A 48.096 48.096 0 0 1 0 47.4 Z M 341.6 27.2 L 341.6 0 L 350.6 0 L 350.6 61.4 A 12.15 12.15 0 0 0 350.702 63.036 Q 351.034 65.47 352.45 66.35 Q 354.3 67.5 356.5 67.5 L 354.6 74.5 Q 345.1 74.5 343 66.9 Q 340.8 70 336.85 72.6 Q 332.9 75.2 326.9 75.2 Q 320.5 75.2 315.2 71.9 A 22.692 22.692 0 0 1 307.662 64.109 A 27.622 27.622 0 0 1 306.8 62.55 A 27.533 27.533 0 0 1 304.212 54.608 A 37.221 37.221 0 0 1 303.7 48.3 A 33.94 33.94 0 0 1 304.589 40.386 A 27.963 27.963 0 0 1 306.85 34.2 A 27.291 27.291 0 0 1 311.469 27.609 A 24.186 24.186 0 0 1 315.25 24.4 Q 320.5 20.8 326.8 20.8 A 21.642 21.642 0 0 1 331.072 21.202 A 15.942 15.942 0 0 1 335.75 22.9 A 34.343 34.343 0 0 1 338.33 24.489 Q 339.554 25.324 340.525 26.174 A 16.59 16.59 0 0 1 341.6 27.2 Z M 78.4 96 L 69.4 96 L 69.4 35.3 A 11.015 11.015 0 0 0 69.273 33.564 Q 68.942 31.498 67.75 30.45 A 5.718 5.718 0 0 0 64.96 29.128 A 7.991 7.991 0 0 0 63.5 29 L 65.4 22 Q 71.262 22 74.322 24.964 A 10.15 10.15 0 0 1 76.9 29.3 Q 77.855 27.867 79.952 25.977 A 38.58 38.58 0 0 1 80.15 25.8 A 18.902 18.902 0 0 1 82.851 23.816 A 25.569 25.569 0 0 1 85.75 22.3 A 16.955 16.955 0 0 1 90.309 21.011 A 21.886 21.886 0 0 1 93.4 20.8 Q 99.4 20.8 104.65 23.95 A 22.329 22.329 0 0 1 111.828 30.917 A 27.464 27.464 0 0 1 113.1 33.05 Q 116.3 39 116.3 47.5 Q 116.3 55.8 113.1 62.05 A 27.846 27.846 0 0 1 109.166 67.882 A 23.029 23.029 0 0 1 104.75 71.75 Q 99.6 75.2 93.6 75.2 Q 89 75.2 85 73.35 A 30.352 30.352 0 0 1 81.584 71.511 Q 79.791 70.384 78.4 69.1 L 78.4 96 Z M 244.2 26.2 L 244.2 22 L 252.4 22 L 252.4 61.4 A 12.15 12.15 0 0 0 252.502 63.036 Q 252.834 65.47 254.25 66.35 Q 256.1 67.5 258.3 67.5 L 256.4 74.5 A 17.722 17.722 0 0 1 252.135 74.028 Q 246.498 72.628 244.903 67.08 A 13.59 13.59 0 0 1 244.8 66.7 A 21.307 21.307 0 0 1 241.69 70.126 A 28.498 28.498 0 0 1 238.55 72.55 Q 234.6 75.2 228.5 75.2 Q 222 75.2 216.7 71.9 A 22.947 22.947 0 0 1 209.287 64.373 A 27.923 27.923 0 0 1 208.25 62.55 A 27.228 27.228 0 0 1 205.62 54.608 A 36.644 36.644 0 0 1 205.1 48.3 A 33.142 33.142 0 0 1 206.097 40.031 A 27.968 27.968 0 0 1 208.25 34.3 Q 211.4 28.1 216.95 24.45 A 22.297 22.297 0 0 1 228.145 20.844 A 27.388 27.388 0 0 1 229.7 20.8 A 22.584 22.584 0 0 1 234.494 21.29 A 18.703 18.703 0 0 1 237.85 22.35 A 26.002 26.002 0 0 1 242.137 24.644 A 22.103 22.103 0 0 1 244.2 26.2 Z M 279.3 74 L 270.3 74 L 270.3 22 L 279 22 L 279 33.3 Q 280.3 30 282.5 27.15 Q 284.7 24.3 288 22.55 A 14.817 14.817 0 0 1 292.68 21.026 A 19.459 19.459 0 0 1 295.7 20.8 Q 297.2 20.8 298.7 20.95 A 18.972 18.972 0 0 1 299.755 21.084 Q 300.255 21.162 300.682 21.262 A 8.817 8.817 0 0 1 301.2 21.4 L 298.5 30.7 A 9.763 9.763 0 0 0 296.355 30.088 Q 295.259 29.9 294 29.9 A 12.958 12.958 0 0 0 287.37 31.746 A 15.609 15.609 0 0 0 286.95 32 Q 283.622 34.086 281.478 38.442 A 22.927 22.927 0 0 0 281.45 38.5 Q 279.687 42.107 279.37 47.328 A 39.09 39.09 0 0 0 279.3 49.7 L 279.3 74 Z M 243.4 60.7 L 243.4 32.8 Q 240.7 30.9 237.45 29.75 Q 234.2 28.6 230.6 28.6 A 15.924 15.924 0 0 0 225.629 29.354 A 14.024 14.024 0 0 0 222.15 31.05 A 16.301 16.301 0 0 0 217.131 36.474 A 19.962 19.962 0 0 0 216.4 37.85 A 20.663 20.663 0 0 0 214.647 43.527 A 27.678 27.678 0 0 0 214.3 48 Q 214.3 53.6 216.4 57.95 A 17.602 17.602 0 0 0 219.506 62.496 A 15.697 15.697 0 0 0 222.2 64.75 Q 225.9 67.2 230.5 67.2 Q 234.3 67.2 237.7 65.35 Q 241.1 63.5 243.4 60.7 Z M 78.4 35.4 L 78.4 61 Q 81 63.7 84.4 65.45 Q 87.8 67.2 91.8 67.2 Q 98.494 67.2 102.717 62.016 A 17.38 17.38 0 0 0 102.85 61.85 A 18.792 18.792 0 0 0 106.344 54.544 Q 107.005 51.855 107.088 48.708 A 34.555 34.555 0 0 0 107.1 47.8 Q 107.1 41.8 104.95 37.5 Q 102.8 33.2 99.25 30.9 Q 95.7 28.6 91.4 28.6 A 14.741 14.741 0 0 0 85.773 29.663 A 14.054 14.054 0 0 0 83.65 30.75 Q 80.2 32.9 78.4 35.4 Z M 341.6 60.9 L 341.6 35.1 A 15.847 15.847 0 0 0 339.489 32.927 Q 338.368 31.964 336.969 31.066 A 28.139 28.139 0 0 0 336.3 30.65 Q 332.9 28.6 328.8 28.6 A 14.946 14.946 0 0 0 323.844 29.4 A 13.385 13.385 0 0 0 320.4 31.2 A 16.69 16.69 0 0 0 315.23 37.35 A 19.924 19.924 0 0 0 314.85 38.15 A 22.19 22.19 0 0 0 313.11 44.514 A 28.113 28.113 0 0 0 312.9 48 A 24.757 24.757 0 0 0 313.493 53.519 A 20.327 20.327 0 0 0 315 57.85 A 18.205 18.205 0 0 0 318.04 62.363 A 16.122 16.122 0 0 0 320.75 64.7 Q 324.4 67.2 328.9 67.2 Q 332.6 67.2 335.95 65.45 Q 339.3 63.7 341.6 60.9 Z" vector-effect="non-scaling-stroke"/></g></svg>